<svg width="322" height="15" viewBox="0 0 322 15" fill="none" xmlns="http://www.w3.org/2000/svg">
<path d="M30.3344 8.15439C28.9896 6.495 27.5444 5.38582 26.058 4.69672C24.572 4.00714 23.0494 3.73909 21.5573 3.73958C19.4426 3.74007 17.3867 4.27273 15.526 4.9014C13.6663 5.5308 11.9953 6.25864 10.6806 6.66166C9.23541 7.10587 7.73318 7.25647 6.37325 7.25623C5.01356 7.25623 3.79667 7.10613 2.92243 6.95627C2.48555 6.88122 2.13416 6.80616 1.89326 6.75036C1.77281 6.72259 1.68004 6.69944 1.61812 6.68336C1.58703 6.67531 1.56348 6.66922 1.54818 6.66508L1.52705 6.65924L1.06443 6.52911V10.6459H1.79296V7.0111H1.4287L1.33035 7.36319C1.35026 7.36806 3.54751 7.98651 6.37325 7.98724C7.78636 7.98699 9.35756 7.83226 10.894 7.36051C12.2719 6.93653 13.933 6.21113 15.7587 5.59416C17.5832 4.9767 19.5658 4.46986 21.5573 4.47059C22.9636 4.47083 24.3734 4.72085 25.7522 5.36023C27.1311 6.00035 28.484 7.03108 29.7694 8.61566L30.3344 8.15439Z" fill="#000D33"/>
<path d="M30.3344 4.4148C28.9896 2.75541 27.5444 1.64623 26.058 0.957129C24.572 0.267544 23.0494 -0.000243503 21.5573 1.66127e-07C19.4426 0.000487505 17.3867 0.533148 15.526 1.16206C13.6663 1.79146 11.9953 2.51905 10.6806 2.92208C9.23541 3.36629 7.73318 3.51688 6.37325 3.51664C5.01356 3.51688 3.79667 3.36678 2.92243 3.21668C2.48555 3.14163 2.13416 3.06683 1.89326 3.01078C1.77281 2.983 1.68004 2.95986 1.61812 2.94377C1.58703 2.93573 1.56348 2.92964 1.54818 2.9255L1.52705 2.91965L1.06443 2.78953V6.90632H1.79296V3.2715H1.4287L1.33035 3.62361C1.35026 3.62848 3.54751 4.24691 6.37325 4.24764C7.78636 4.24764 9.35756 4.09267 10.894 3.62117C12.2719 3.19694 13.933 2.47154 15.7587 1.85457C17.5832 1.23735 19.5658 0.730522 21.5573 0.731009C22.9636 0.731253 24.3734 0.981252 25.7522 1.62064C27.1311 2.26076 28.484 3.29149 29.7694 4.87607L30.3344 4.4148Z" fill="#000D33"/>
<path d="M30.2839 8.61566C31.5696 7.03108 32.9222 6.00035 34.3011 5.36023C35.6802 4.72085 37.0897 4.47083 38.4962 4.47059C40.4875 4.46986 42.4703 4.9767 44.2948 5.59416C46.1205 6.21113 47.7814 6.93653 49.1595 7.36051C50.6957 7.83226 52.2669 7.98699 53.68 7.98724C56.5058 7.98651 58.703 7.36806 58.7229 7.36319L58.6248 7.0111H58.2606V10.6459H58.9891L58.9889 6.52911L58.5265 6.65924L58.5051 6.66508C58.2759 6.72722 56.2302 7.25672 53.68 7.25623C52.3201 7.25647 50.8179 7.10587 49.3727 6.66166C48.0582 6.25864 46.3869 5.5308 44.5275 4.9014C42.6666 4.27273 40.6106 3.74007 38.4962 3.73958C37.0039 3.73909 35.4815 4.00714 33.9953 4.69672C32.5091 5.38582 31.064 6.495 29.7188 8.15439L30.2839 8.61566Z" fill="#000D33"/>
<path d="M30.2839 4.87607C31.5696 3.29149 32.9222 2.26076 34.3011 1.62064C35.6802 0.981252 37.0897 0.731253 38.4962 0.731009C40.4875 0.730522 42.4703 1.23735 44.2948 1.85457C46.1205 2.47154 47.7814 3.19694 49.1595 3.62117C50.6957 4.09267 52.2669 4.24764 53.68 4.24764C56.5058 4.24691 58.703 3.62848 58.7229 3.62361L58.6248 3.2715H58.2606V6.90632H58.9891L58.9889 2.78953L58.5265 2.91965L58.5051 2.9255C58.2759 2.98788 56.2302 3.51737 53.68 3.51664C52.3201 3.51688 50.8179 3.36629 49.3727 2.92208C48.0582 2.51905 46.3869 1.79146 44.5275 1.16206C42.6666 0.533148 40.6106 0.000487505 38.4962 1.66127e-07C37.0039 -0.000243503 35.4815 0.267544 33.9953 0.957129C32.5091 1.64623 31.064 2.75541 29.7188 4.4148L30.2839 4.87607Z" fill="#000D33"/>
<path d="M30.4162 8.38516V4.64557C30.4162 4.44356 30.2531 4.28006 30.052 4.28006C29.8507 4.28006 29.6877 4.44356 29.6877 4.64557V8.38516C29.6877 8.58692 29.8507 8.75066 30.052 8.75066C30.2531 8.75066 30.4162 8.58692 30.4162 8.38516Z" fill="#000D33"/>
<path d="M51.1647 10.5575C48.7782 10.5428 46.4804 9.91661 44.6882 9.25042C42.8458 8.56546 41.3144 7.86759 39.8607 7.86759C37.8612 7.86759 36.5175 8.56351 35.6778 9.25042C35.0211 9.78771 34.6726 10.3196 34.5607 10.509C34.3557 10.1581 34.0296 9.69292 33.5529 9.25042C32.826 8.5757 31.7437 7.96042 30.206 7.8805V7.86978C30.1812 7.87051 30.1591 7.87417 30.1348 7.87515C30.1103 7.87417 30.0882 7.87051 30.0637 7.86978V7.8805C28.526 7.96042 27.4434 8.5757 26.7166 9.25042C26.2399 9.69292 25.9137 10.1581 25.7088 10.509C25.5968 10.3196 25.2483 9.78771 24.5917 9.25042C23.7519 8.56351 22.4083 7.86759 20.4087 7.86759C18.955 7.86759 17.4236 8.56546 15.5812 9.25042C13.789 9.91661 11.4912 10.5428 9.10477 10.5575C5.10488 10.5818 0.794149 10.555 0 10.5628V12.8289H60.0185V10.574C59.2242 10.5665 55.1645 10.5818 51.1647 10.5575Z" fill="#000D33"/>
<path d="M71.142 0.789473H78.5042V2.46316H73.0625V4.86316H75.1432C75.8154 4.86316 76.4076 4.95263 76.9197 5.13158C77.4426 5.3 77.88 5.53684 78.2321 5.8421C78.5842 6.14737 78.851 6.51579 79.0324 6.94737C79.2138 7.36842 79.3045 7.83684 79.3045 8.35263C79.3045 9.45789 78.9684 10.3158 78.2962 10.9263C77.624 11.5368 76.573 11.8421 75.1432 11.8421H71.142V0.789473ZM73.0625 6.53684V10.1684H75.1432C75.8581 10.1684 76.3916 10.0053 76.7437 9.67895C77.1065 9.35263 77.2878 8.91053 77.2878 8.35263C77.2878 7.82632 77.1011 7.39474 76.7277 7.05789C76.3542 6.71053 75.8261 6.53684 75.1432 6.53684H73.0625Z" fill="#000D33"/>
<path d="M86.1762 6.26842L85.456 7.73684L83.1673 11.8421H80.8306V3.94737H82.6871V9.52105L83.4074 8.05263L85.6961 3.94737H88.0328V11.8421H86.1762V6.26842Z" fill="#000D33"/>
<path d="M93.4757 11.9842C92.2807 11.9842 91.3417 11.6211 90.6588 10.8947C89.976 10.1579 89.6345 9.03158 89.6345 7.51579V6.69474C89.6345 6.11579 89.6719 5.56316 89.7466 5.03684C89.8212 4.5 89.944 4.01053 90.1147 3.56842C90.2854 3.12631 90.5095 2.73684 90.7869 2.4C91.075 2.05263 91.4218 1.76842 91.8272 1.54737C92.19 1.35789 92.5421 1.23158 92.8835 1.16842C93.2356 1.10526 93.5984 1.06316 93.9719 1.0421C94.356 1.01053 94.7668 0.973684 95.2042 0.931578C95.6417 0.889473 96.1325 0.794736 96.6767 0.647368V2.22632C96.2712 2.35263 95.8818 2.43684 95.5083 2.47895C95.1456 2.51053 94.7935 2.5421 94.452 2.57368C94.1106 2.59474 93.7851 2.62632 93.4757 2.66842C93.177 2.71053 92.8942 2.80526 92.6275 2.95263C92.286 3.1421 92.0193 3.4 91.8272 3.72632C91.6352 4.05263 91.4964 4.5 91.4111 5.06842C91.7098 4.7 92.0673 4.42632 92.4834 4.24737C92.8995 4.05789 93.3637 3.96316 93.8758 3.96316C94.388 3.96316 94.8521 4.04737 95.2683 4.21579C95.6951 4.38421 96.0578 4.63158 96.3566 4.95789C96.666 5.27368 96.9008 5.66316 97.0608 6.12632C97.2315 6.58947 97.3169 7.12105 97.3169 7.72105V8.22632C97.3169 8.80526 97.2262 9.32632 97.0448 9.78947C96.8741 10.2526 96.618 10.6474 96.2766 10.9737C95.9458 11.3 95.5404 11.5526 95.0602 11.7316C94.5907 11.9 94.0626 11.9842 93.4757 11.9842ZM93.4757 5.66842C92.9102 5.66842 92.4567 5.83684 92.1153 6.17368C91.7845 6.51053 91.6085 6.99474 91.5871 7.62632V8.22632C91.5871 8.88947 91.7579 9.4 92.0993 9.75789C92.4407 10.1053 92.8995 10.2789 93.4757 10.2789C94.0519 10.2789 94.5107 10.1053 94.8521 9.75789C95.1936 9.4 95.3643 8.88947 95.3643 8.22632V7.72105C95.3643 7.05789 95.1936 6.55263 94.8521 6.20526C94.5107 5.84737 94.0519 5.66842 93.4757 5.66842Z" fill="#000D33"/>
<path d="M97.8777 10.2789H98.1178C98.2565 10.2789 98.3952 10.2421 98.5339 10.1684C98.6833 10.0842 98.8167 9.94737 98.934 9.75789C99.0514 9.55789 99.1421 9.28947 99.2061 8.95263C99.2808 8.61579 99.3181 8.18947 99.3181 7.67368V3.94737H105.4V11.8421H103.543V5.55789H101.175V7.67368C101.175 8.48421 101.1 9.16316 100.951 9.71053C100.812 10.2579 100.609 10.7 100.342 11.0368C100.086 11.3737 99.7663 11.6158 99.3822 11.7632C99.0087 11.9105 98.5873 11.9842 98.1178 11.9842H97.8777V10.2789Z" fill="#000D33"/>
<path d="M112.825 6.26842L112.105 7.73684L109.816 11.8421H107.479V3.94737H109.336V9.52105L110.056 8.05263L112.345 3.94737H114.682V11.8421H112.825V6.26842Z" fill="#000D33"/>
<path d="M120.125 11.9842C118.919 11.9842 117.975 11.6474 117.292 10.9737C116.619 10.3 116.283 9.35789 116.283 8.14737V7.64211C116.283 7.04211 116.369 6.50526 116.539 6.03158C116.721 5.55789 116.977 5.15789 117.308 4.83158C117.649 4.49474 118.055 4.2421 118.524 4.07368C118.994 3.89474 119.527 3.80526 120.125 3.80526C121.33 3.80526 122.269 4.14211 122.941 4.81579C123.624 5.48947 123.966 6.43158 123.966 7.64211V8.14737C123.966 8.74737 123.875 9.28421 123.694 9.75789C123.523 10.2316 123.267 10.6368 122.925 10.9737C122.595 11.3 122.189 11.5526 121.709 11.7316C121.24 11.9 120.711 11.9842 120.125 11.9842ZM120.125 10.2789C120.733 10.2789 121.197 10.1053 121.517 9.75789C121.848 9.41053 122.013 8.87368 122.013 8.14737V7.64211C122.013 6.92632 121.842 6.39474 121.501 6.04737C121.17 5.68947 120.711 5.51053 120.125 5.51053C119.516 5.51053 119.047 5.68421 118.716 6.03158C118.396 6.37895 118.236 6.91579 118.236 7.64211V8.14737C118.236 8.86316 118.401 9.4 118.732 9.75789C119.074 10.1053 119.538 10.2789 120.125 10.2789Z" fill="#000D33"/>
<path d="M124.45 3.94737H131.172V5.55789H128.74V11.8421H126.883V5.55789H124.45V3.94737Z" fill="#000D33"/>
<path d="M135.424 11.9842C134.848 11.9842 134.331 11.9 133.872 11.7316C133.413 11.5526 133.018 11.3 132.687 10.9737C132.357 10.6368 132.101 10.2316 131.919 9.75789C131.748 9.28421 131.663 8.74737 131.663 8.14737V7.64211C131.663 7.04211 131.748 6.50526 131.919 6.03158C132.101 5.55789 132.357 5.15789 132.687 4.83158C133.018 4.49474 133.413 4.2421 133.872 4.07368C134.331 3.89474 134.848 3.80526 135.424 3.80526C136.587 3.80526 137.505 4.15789 138.177 4.86316C138.849 5.56842 139.185 6.57895 139.185 7.89474V8.51053H133.52C133.573 9.17368 133.76 9.65263 134.08 9.94737C134.4 10.2316 134.848 10.3737 135.424 10.3737C135.99 10.3737 136.401 10.2789 136.657 10.0895C136.923 9.88947 137.099 9.65789 137.185 9.39474H139.105C139.02 9.76316 138.887 10.1053 138.705 10.4211C138.524 10.7368 138.284 11.0105 137.985 11.2421C137.686 11.4737 137.324 11.6579 136.897 11.7947C136.47 11.9211 135.979 11.9842 135.424 11.9842ZM135.424 5.41579C134.88 5.41579 134.453 5.54737 134.144 5.81053C133.834 6.07368 133.637 6.48947 133.552 7.05789H137.297C137.222 6.46842 137.025 6.04737 136.705 5.79474C136.395 5.5421 135.968 5.41579 135.424 5.41579Z" fill="#000D33"/>
<path d="M143.443 8.54211H142.643V11.8421H140.787V3.94737H142.643V6.93158H143.443L145.364 3.94737H147.509L144.98 7.67368L147.829 11.8421H145.588L143.443 8.54211Z" fill="#000D33"/>
<path d="M150.87 11.9842C150.005 11.9842 149.349 11.7737 148.901 11.3526C148.453 10.9316 148.229 10.3474 148.229 9.6C148.229 9.18947 148.293 8.82105 148.421 8.49474C148.56 8.15789 148.773 7.87895 149.061 7.65789C149.36 7.42632 149.739 7.25263 150.197 7.13684C150.667 7.01053 151.238 6.94737 151.91 6.94737H153.254V6.47368C153.254 6.09474 153.148 5.81053 152.934 5.62105C152.732 5.42105 152.39 5.32105 151.91 5.32105C151.462 5.32105 151.136 5.40526 150.934 5.57368C150.731 5.7421 150.608 5.96316 150.566 6.23684H148.549C148.592 5.53158 148.88 4.95263 149.413 4.5C149.957 4.03684 150.79 3.80526 151.91 3.80526C152.977 3.80526 153.777 4.04737 154.311 4.53158C154.844 5.01579 155.111 5.66316 155.111 6.47368V11.8421H153.655L153.462 10.7526C153.185 11.1526 152.822 11.4579 152.374 11.6684C151.937 11.8789 151.435 11.9842 150.87 11.9842ZM151.19 10.4684C151.489 10.4684 151.761 10.4211 152.006 10.3263C152.262 10.2211 152.481 10.0842 152.662 9.91579C152.844 9.73684 152.988 9.53684 153.094 9.31579C153.201 9.09474 153.254 8.85789 153.254 8.60526V8.36842H151.91C151.27 8.36842 150.822 8.47368 150.566 8.68421C150.309 8.89474 150.181 9.17895 150.181 9.53684C150.181 9.82105 150.267 10.0474 150.438 10.2158C150.619 10.3842 150.87 10.4684 151.19 10.4684Z" fill="#000D33"/>
<path d="M164.386 11.9842C163.81 11.9842 163.287 11.9 162.818 11.7316C162.359 11.5526 161.964 11.3 161.633 10.9737C161.313 10.6368 161.063 10.2316 160.881 9.75789C160.711 9.28421 160.625 8.74737 160.625 8.14737V7.64211C160.625 7.05263 160.711 6.52105 160.881 6.04737C161.063 5.57368 161.319 5.17368 161.65 4.84737C161.98 4.51053 162.375 4.25263 162.834 4.07368C163.303 3.89474 163.821 3.80526 164.386 3.80526C165.4 3.80526 166.184 4.05263 166.739 4.54737C167.305 5.0421 167.667 5.68421 167.827 6.47368H165.843C165.757 6.18947 165.581 5.95789 165.315 5.77895C165.048 5.6 164.712 5.51053 164.306 5.51053C164.072 5.51053 163.848 5.55263 163.634 5.63684C163.431 5.71053 163.25 5.83684 163.09 6.01579C162.93 6.18421 162.802 6.40526 162.706 6.67895C162.62 6.9421 162.578 7.26316 162.578 7.64211V8.14737C162.578 8.51579 162.626 8.83684 162.722 9.11053C162.818 9.37368 162.946 9.59474 163.106 9.77368C163.266 9.9421 163.447 10.0684 163.65 10.1526C163.864 10.2368 164.082 10.2789 164.306 10.2789C164.765 10.2789 165.112 10.1789 165.347 9.97895C165.592 9.77895 165.757 9.53158 165.843 9.23684H167.827C167.667 10.0684 167.305 10.7368 166.739 11.2421C166.184 11.7368 165.4 11.9842 164.386 11.9842Z" fill="#000D33"/>
<path d="M172.547 11.9842C171.341 11.9842 170.397 11.6474 169.714 10.9737C169.042 10.3 168.706 9.35789 168.706 8.14737V7.64211C168.706 7.04211 168.791 6.50526 168.962 6.03158C169.143 5.55789 169.399 5.15789 169.73 4.83158C170.072 4.49474 170.477 4.2421 170.947 4.07368C171.416 3.89474 171.949 3.80526 172.547 3.80526C173.753 3.80526 174.692 4.14211 175.364 4.81579C176.047 5.48947 176.388 6.43158 176.388 7.64211V8.14737C176.388 8.74737 176.297 9.28421 176.116 9.75789C175.945 10.2316 175.689 10.6368 175.348 10.9737C175.017 11.3 174.612 11.5526 174.131 11.7316C173.662 11.9 173.134 11.9842 172.547 11.9842ZM172.547 10.2789C173.155 10.2789 173.619 10.1053 173.939 9.75789C174.27 9.41053 174.436 8.87368 174.436 8.14737V7.64211C174.436 6.92632 174.265 6.39474 173.923 6.04737C173.593 5.68947 173.134 5.51053 172.547 5.51053C171.939 5.51053 171.469 5.68421 171.139 6.03158C170.818 6.37895 170.658 6.91579 170.658 7.64211V8.14737C170.658 8.86316 170.824 9.4 171.155 9.75789C171.496 10.1053 171.96 10.2789 172.547 10.2789Z" fill="#000D33"/>
<path d="M177.986 3.94737H181.107C181.704 3.94737 182.211 4 182.627 4.10526C183.043 4.21053 183.379 4.36316 183.635 4.56316C183.902 4.75263 184.094 4.98421 184.211 5.25789C184.329 5.53158 184.388 5.83684 184.388 6.17368C184.388 6.48947 184.307 6.78421 184.147 7.05789C183.987 7.33158 183.737 7.56316 183.395 7.75263C183.854 7.93158 184.185 8.17895 184.388 8.49474C184.601 8.81053 184.708 9.15789 184.708 9.53684C184.708 9.89474 184.649 10.2158 184.532 10.5C184.414 10.7842 184.222 11.0263 183.955 11.2263C183.699 11.4263 183.363 11.5789 182.947 11.6842C182.531 11.7895 182.024 11.8421 181.427 11.8421H177.986V3.94737ZM179.778 8.52631V10.3895H181.427C181.917 10.3895 182.259 10.3105 182.451 10.1526C182.654 9.98421 182.755 9.75263 182.755 9.45789C182.755 9.16316 182.654 8.93684 182.451 8.77895C182.259 8.61053 181.917 8.52631 181.427 8.52631H179.778ZM179.778 5.4V7.10526H181.107C181.619 7.10526 181.965 7.03158 182.147 6.88421C182.339 6.73684 182.435 6.52632 182.435 6.25263C182.435 5.97895 182.339 5.76842 182.147 5.62105C181.965 5.47368 181.619 5.4 181.107 5.4H179.778Z" fill="#000D33"/>
<path d="M190.494 11.9842C189.491 11.9842 188.712 11.6737 188.157 11.0526V15H186.301V3.94737H187.757L187.933 5.02105C188.211 4.61053 188.563 4.30526 188.989 4.10526C189.427 3.90526 189.928 3.80526 190.494 3.80526C190.953 3.80526 191.374 3.88947 191.758 4.05789C192.153 4.21579 192.489 4.45789 192.767 4.78421C193.044 5.1 193.263 5.5 193.423 5.98421C193.583 6.45789 193.663 7.01053 193.663 7.64211V8.14737C193.663 8.77895 193.583 9.33158 193.423 9.80526C193.263 10.2789 193.039 10.6789 192.751 11.0053C192.473 11.3316 192.142 11.5789 191.758 11.7474C191.374 11.9053 190.953 11.9842 190.494 11.9842ZM189.934 10.2789C190.499 10.2789 190.937 10.1105 191.246 9.77368C191.556 9.43684 191.71 8.89474 191.71 8.14737V7.64211C191.71 6.91579 191.55 6.37895 191.23 6.03158C190.91 5.68421 190.478 5.51053 189.934 5.51053C189.422 5.51053 189 5.68421 188.669 6.03158C188.349 6.37895 188.179 6.88421 188.157 7.54737V8.14737C188.157 8.8421 188.323 9.37368 188.653 9.7421C188.995 10.1 189.422 10.2789 189.934 10.2789Z" fill="#000D33"/>
<path d="M198.538 11.9842C197.961 11.9842 197.444 11.9 196.985 11.7316C196.526 11.5526 196.131 11.3 195.801 10.9737C195.47 10.6368 195.214 10.2316 195.032 9.75789C194.862 9.28421 194.776 8.74737 194.776 8.14737V7.64211C194.776 7.04211 194.862 6.50526 195.032 6.03158C195.214 5.55789 195.47 5.15789 195.801 4.83158C196.131 4.49474 196.526 4.2421 196.985 4.07368C197.444 3.89474 197.961 3.80526 198.538 3.80526C199.701 3.80526 200.618 4.15789 201.29 4.86316C201.963 5.56842 202.299 6.57895 202.299 7.89474V8.51053H196.633C196.686 9.17368 196.873 9.65263 197.193 9.94737C197.513 10.2316 197.961 10.3737 198.538 10.3737C199.103 10.3737 199.514 10.2789 199.77 10.0895C200.037 9.88947 200.213 9.65789 200.298 9.39474H202.219C202.133 9.76316 202 10.1053 201.819 10.4211C201.637 10.7368 201.397 11.0105 201.098 11.2421C200.8 11.4737 200.437 11.6579 200.01 11.7947C199.583 11.9211 199.092 11.9842 198.538 11.9842ZM198.538 5.41579C197.993 5.41579 197.567 5.54737 197.257 5.81053C196.948 6.07368 196.75 6.48947 196.665 7.05789H200.41C200.335 6.46842 200.138 6.04737 199.818 5.79474C199.508 5.5421 199.082 5.41579 198.538 5.41579Z" fill="#000D33"/>
<path d="M206.381 7.73684L205.756 6.22105V11.8421H203.9V3.94737H206.557L208.333 8.06842L210.142 3.94737H212.702V11.8421H210.846V6.22105L210.222 7.73684L209.229 10.0263H207.373L206.381 7.73684Z" fill="#000D33"/>
<path d="M218.059 11.9842C217.483 11.9842 216.965 11.9 216.507 11.7316C216.048 11.5526 215.653 11.3 215.322 10.9737C214.992 10.6368 214.735 10.2316 214.554 9.75789C214.383 9.28421 214.298 8.74737 214.298 8.14737V7.64211C214.298 7.04211 214.383 6.50526 214.554 6.03158C214.735 5.55789 214.992 5.15789 215.322 4.83158C215.653 4.49474 216.048 4.2421 216.507 4.07368C216.965 3.89474 217.483 3.80526 218.059 3.80526C219.222 3.80526 220.14 4.15789 220.812 4.86316C221.484 5.56842 221.82 6.57895 221.82 7.89474V8.51053H216.155C216.208 9.17368 216.395 9.65263 216.715 9.94737C217.035 10.2316 217.483 10.3737 218.059 10.3737C218.625 10.3737 219.035 10.2789 219.292 10.0895C219.558 9.88947 219.734 9.65789 219.82 9.39474H221.74C221.655 9.76316 221.522 10.1053 221.34 10.4211C221.159 10.7368 220.919 11.0105 220.62 11.2421C220.321 11.4737 219.958 11.6579 219.532 11.7947C219.105 11.9211 218.614 11.9842 218.059 11.9842ZM218.059 5.41579C217.515 5.41579 217.088 5.54737 216.779 5.81053C216.469 6.07368 216.272 6.48947 216.187 7.05789H219.932C219.857 6.46842 219.66 6.04737 219.34 5.79474C219.03 5.5421 218.603 5.41579 218.059 5.41579Z" fill="#000D33"/>
<path d="M228.767 8.62105H225.278V11.8421H223.421V3.94737H225.278V7.01053H228.767V3.94737H230.624V11.8421H228.767V8.62105Z" fill="#000D33"/>
<path d="M238.051 8.62105H234.562V11.8421H232.706V3.94737H234.562V7.01053H238.051V3.94737H239.908V11.8421H238.051V8.62105Z" fill="#000D33"/>
<path d="M241.99 3.94737H243.846V6.31579H245.031C246.258 6.31579 247.149 6.56316 247.703 7.05789C248.269 7.55263 248.552 8.22632 248.552 9.07895C248.552 9.93158 248.269 10.6053 247.703 11.1C247.149 11.5947 246.258 11.8421 245.031 11.8421H241.99V3.94737ZM249.416 3.94737H251.273V11.8421H249.416V3.94737ZM243.846 7.81579V10.3421H245.111C245.623 10.3421 245.996 10.2316 246.231 10.0105C246.476 9.78947 246.599 9.47895 246.599 9.07895C246.599 8.67895 246.476 8.36842 246.231 8.14737C245.996 7.92631 245.623 7.81579 245.111 7.81579H243.846Z" fill="#000D33"/>
<path d="M256.281 9.18947L254.473 11.8421H252.392L255.161 7.84737L252.52 3.94737H254.665L256.345 6.45789L258.058 3.94737H260.107L257.466 7.78421L260.235 11.8421H258.09L256.281 9.18947Z" fill="#000D33"/>
<path d="M267.437 11.9842C266.573 11.9842 265.916 11.7737 265.468 11.3526C265.02 10.9316 264.796 10.3474 264.796 9.6C264.796 9.18947 264.86 8.82105 264.988 8.49474C265.127 8.15789 265.34 7.87895 265.628 7.65789C265.927 7.42632 266.306 7.25263 266.765 7.13684C267.234 7.01053 267.805 6.94737 268.477 6.94737H269.822V6.47368C269.822 6.09474 269.715 5.81053 269.502 5.62105C269.299 5.42105 268.957 5.32105 268.477 5.32105C268.029 5.32105 267.704 5.40526 267.501 5.57368C267.298 5.7421 267.175 5.96316 267.133 6.23684H265.116C265.159 5.53158 265.447 4.95263 265.98 4.5C266.525 4.03684 267.357 3.80526 268.477 3.80526C269.544 3.80526 270.344 4.04737 270.878 4.53158C271.411 5.01579 271.678 5.66316 271.678 6.47368V11.8421H270.222L270.03 10.7526C269.752 11.1526 269.389 11.4579 268.941 11.6684C268.504 11.8789 268.002 11.9842 267.437 11.9842ZM267.757 10.4684C268.056 10.4684 268.328 10.4211 268.573 10.3263C268.829 10.2211 269.048 10.0842 269.229 9.91579C269.411 9.73684 269.555 9.53684 269.662 9.31579C269.768 9.09474 269.822 8.85789 269.822 8.60526V8.36842H268.477C267.837 8.36842 267.389 8.47368 267.133 8.68421C266.877 8.89474 266.749 9.17895 266.749 9.53684C266.749 9.82105 266.834 10.0474 267.005 10.2158C267.186 10.3842 267.437 10.4684 267.757 10.4684Z" fill="#000D33"/>
<path d="M273.671 3.94737H276.792C277.39 3.94737 277.897 4 278.313 4.10526C278.729 4.21053 279.065 4.36316 279.321 4.56316C279.588 4.75263 279.78 4.98421 279.897 5.25789C280.015 5.53158 280.073 5.83684 280.073 6.17368C280.073 6.48947 279.993 6.78421 279.833 7.05789C279.673 7.33158 279.422 7.56316 279.081 7.75263C279.54 7.93158 279.871 8.17895 280.073 8.49474C280.287 8.81053 280.393 9.15789 280.393 9.53684C280.393 9.89474 280.335 10.2158 280.217 10.5C280.1 10.7842 279.908 11.0263 279.641 11.2263C279.385 11.4263 279.049 11.5789 278.633 11.6842C278.217 11.7895 277.71 11.8421 277.112 11.8421H273.671V3.94737ZM275.464 8.52631V10.3895H277.112C277.603 10.3895 277.945 10.3105 278.137 10.1526C278.339 9.98421 278.441 9.75263 278.441 9.45789C278.441 9.16316 278.339 8.93684 278.137 8.77895C277.945 8.61053 277.603 8.52631 277.112 8.52631H275.464ZM275.464 5.4V7.10526H276.792C277.304 7.10526 277.651 7.03158 277.833 6.88421C278.025 6.73684 278.121 6.52632 278.121 6.25263C278.121 5.97895 278.025 5.76842 277.833 5.62105C277.651 5.47368 277.304 5.4 276.792 5.4H275.464Z" fill="#000D33"/>
<path d="M281.03 3.94737H287.752V5.55789H285.319V11.8421H283.463V5.55789H281.03V3.94737Z" fill="#000D33"/>
<path d="M292.084 11.9842C290.878 11.9842 289.934 11.6474 289.251 10.9737C288.579 10.3 288.243 9.35789 288.243 8.14737V7.64211C288.243 7.04211 288.328 6.50526 288.499 6.03158C288.68 5.55789 288.936 5.15789 289.267 4.83158C289.608 4.49474 290.014 4.2421 290.483 4.07368C290.953 3.89474 291.486 3.80526 292.084 3.80526C293.29 3.80526 294.229 4.14211 294.901 4.81579C295.584 5.48947 295.925 6.43158 295.925 7.64211V8.14737C295.925 8.74737 295.834 9.28421 295.653 9.75789C295.482 10.2316 295.226 10.6368 294.885 10.9737C294.554 11.3 294.149 11.5526 293.668 11.7316C293.199 11.9 292.671 11.9842 292.084 11.9842ZM292.084 10.2789C292.692 10.2789 293.156 10.1053 293.476 9.75789C293.807 9.41053 293.972 8.87368 293.972 8.14737V7.64211C293.972 6.92632 293.802 6.39474 293.46 6.04737C293.13 5.68947 292.671 5.51053 292.084 5.51053C291.476 5.51053 291.006 5.68421 290.675 6.03158C290.355 6.37895 290.195 6.91579 290.195 7.64211V8.14737C290.195 8.86316 290.361 9.4 290.691 9.75789C291.033 10.1053 291.497 10.2789 292.084 10.2789Z" fill="#000D33"/>
<path d="M301.716 11.9842C300.713 11.9842 299.934 11.6737 299.379 11.0526V15H297.522V3.94737H298.979L299.155 5.02105C299.432 4.61053 299.784 4.30526 300.211 4.10526C300.649 3.90526 301.15 3.80526 301.716 3.80526C302.175 3.80526 302.596 3.88947 302.98 4.05789C303.375 4.21579 303.711 4.45789 303.988 4.78421C304.266 5.1 304.485 5.5 304.645 5.98421C304.805 6.45789 304.885 7.01053 304.885 7.64211V8.14737C304.885 8.77895 304.805 9.33158 304.645 9.80526C304.485 10.2789 304.261 10.6789 303.972 11.0053C303.695 11.3316 303.364 11.5789 302.98 11.7474C302.596 11.9053 302.175 11.9842 301.716 11.9842ZM301.156 10.2789C301.721 10.2789 302.159 10.1105 302.468 9.77368C302.777 9.43684 302.932 8.89474 302.932 8.14737V7.64211C302.932 6.91579 302.772 6.37895 302.452 6.03158C302.132 5.68421 301.7 5.51053 301.156 5.51053C300.643 5.51053 300.222 5.68421 299.891 6.03158C299.571 6.37895 299.4 6.88421 299.379 7.54737V8.14737C299.379 8.8421 299.544 9.37368 299.875 9.7421C300.217 10.1 300.643 10.2789 301.156 10.2789Z" fill="#000D33"/>
<path d="M309.839 11.9842C308.634 11.9842 307.689 11.6474 307.006 10.9737C306.334 10.3 305.998 9.35789 305.998 8.14737V7.64211C305.998 7.04211 306.084 6.50526 306.254 6.03158C306.436 5.55789 306.692 5.15789 307.022 4.83158C307.364 4.49474 307.769 4.2421 308.239 4.07368C308.708 3.89474 309.242 3.80526 309.839 3.80526C311.045 3.80526 311.984 4.14211 312.656 4.81579C313.339 5.48947 313.681 6.43158 313.681 7.64211V8.14737C313.681 8.74737 313.59 9.28421 313.408 9.75789C313.238 10.2316 312.982 10.6368 312.64 10.9737C312.309 11.3 311.904 11.5526 311.424 11.7316C310.954 11.9 310.426 11.9842 309.839 11.9842ZM309.839 10.2789C310.448 10.2789 310.912 10.1053 311.232 9.75789C311.563 9.41053 311.728 8.87368 311.728 8.14737V7.64211C311.728 6.92632 311.557 6.39474 311.216 6.04737C310.885 5.68947 310.426 5.51053 309.839 5.51053C309.231 5.51053 308.762 5.68421 308.431 6.03158C308.111 6.37895 307.951 6.91579 307.951 7.64211V8.14737C307.951 8.86316 308.116 9.4 308.447 9.75789C308.788 10.1053 309.253 10.2789 309.839 10.2789Z" fill="#000D33"/>
<path d="M315.278 3.94737H318.399C318.996 3.94737 319.503 4 319.919 4.10526C320.335 4.21053 320.672 4.36316 320.928 4.56316C321.194 4.75263 321.386 4.98421 321.504 5.25789C321.621 5.53158 321.68 5.83684 321.68 6.17368C321.68 6.48947 321.6 6.78421 321.44 7.05789C321.28 7.33158 321.029 7.56316 320.688 7.75263C321.146 7.93158 321.477 8.17895 321.68 8.49474C321.893 8.81053 322 9.15789 322 9.53684C322 9.89474 321.941 10.2158 321.824 10.5C321.707 10.7842 321.514 11.0263 321.248 11.2263C320.992 11.4263 320.656 11.5789 320.239 11.6842C319.823 11.7895 319.316 11.8421 318.719 11.8421H315.278V3.94737ZM317.07 8.52631V10.3895H318.719C319.21 10.3895 319.551 10.3105 319.743 10.1526C319.946 9.98421 320.047 9.75263 320.047 9.45789C320.047 9.16316 319.946 8.93684 319.743 8.77895C319.551 8.61053 319.21 8.52631 318.719 8.52631H317.07ZM317.07 5.4V7.10526H318.399C318.911 7.10526 319.258 7.03158 319.439 6.88421C319.631 6.73684 319.727 6.52632 319.727 6.25263C319.727 5.97895 319.631 5.76842 319.439 5.62105C319.258 5.47368 318.911 5.4 318.399 5.4H317.07Z" fill="#000D33"/>
</svg>
